<?xml version="1.0" standalone="no"?>
<!DOCTYPE svg PUBLIC "-//W3C//DTD SVG 20010904//EN"
 "http://www.w3.org/TR/2001/REC-SVG-20010904/DTD/svg10.dtd">
<svg version="1.0" xmlns="http://www.w3.org/2000/svg"
 width="200.000000pt" height="200.000000pt" viewBox="0 0 200.000000 200.000000"
 preserveAspectRatio="xMidYMid meet">
<g transform="translate(0.000000,200.000000) scale(0.100000,-0.100000)"
fill="#932a8f" stroke="none">
<path d="M297 1352 c-147 -147 -267 -272 -267 -277 1 -6 36 -48 80 -95 l79
-85 248 248 249 247 207 0 207 0 0 115 0 115 -268 0 -267 0 -268 -268z"/>
<path d="M1250 1505 l0 -115 120 0 120 0 0 115 0 115 -120 0 -120 0 0 -115z"/>
<path d="M526 941 l-178 -178 174 -186 173 -185 473 -1 472 -1 0 105 0 105
-406 0 -406 0 -78 62 -78 62 71 58 71 58 338 0 338 0 0 140 0 140 -393 0 -392
0 -179 -179z"/>
<path d="M1690 495 l0 -105 130 0 130 0 0 105 0 105 -130 0 -130 0 0 -105z"/>
</g>
</svg>
